<svg id="svg" version="1.1" width="500" height="500" xmlns="http://www.w3.org/2000/svg"><path d="M0.000 250.000 L 0.000 500.000 250.000 500.000 L 500.000 500.000 500.000 250.000 L 500.000 0.000 250.000 0.000 L 0.000 0.000 0.000 250.000 M184.450 85.418 C 189.977 87.270,200.575 91.414,208.000 94.627 C 220.709 100.128,221.969 100.471,229.500 100.485 C 239.323 100.503,244.769 98.813,262.179 90.338 C 269.341 86.852,276.244 84.000,277.517 84.000 C 282.779 84.000,280.791 90.361,274.239 94.492 C 262.614 101.820,252.449 115.749,247.101 131.680 C 241.454 148.501,240.367 174.495,243.910 208.000 C 249.616 261.953,248.256 296.436,239.378 322.942 C 236.371 331.919,228.492 347.777,219.573 362.802 C 215.958 368.892,213.000 374.579,213.000 375.438 C 213.000 378.297,216.535 377.051,220.626 372.750 C 241.969 350.311,258.075 320.308,264.509 291.000 C 265.477 286.591,266.364 276.699,266.661 267.000 C 267.115 252.145,266.811 247.758,263.616 223.000 C 259.314 189.658,258.330 172.313,259.916 157.741 C 262.522 133.784,268.651 119.126,281.389 106.389 C 295.059 92.719,310.052 86.976,337.762 84.796 C 351.503 83.715,353.185 83.756,354.642 85.213 C 356.783 87.355,355.681 91.785,352.722 92.923 C 351.500 93.393,347.575 94.220,344.000 94.761 C 326.797 97.363,314.980 109.290,310.387 128.686 C 307.901 139.187,308.241 156.940,311.475 185.500 C 315.264 218.961,315.520 246.969,312.190 263.695 C 305.486 297.364,289.811 324.446,259.832 354.157 C 253.139 360.790,248.597 366.015,249.293 366.282 C 249.966 366.540,255.462 365.227,261.508 363.364 C 304.905 349.990,332.606 353.000,373.000 375.479 C 389.472 384.646,387.985 384.060,390.913 382.537 C 392.336 381.797,394.850 379.811,396.500 378.124 C 399.854 374.694,402.483 374.249,405.777 376.557 C 410.218 379.667,408.830 382.217,394.767 396.789 C 387.489 404.330,375.902 415.960,369.017 422.633 L 356.500 434.765 353.000 432.046 C 345.520 426.233,336.648 420.765,326.294 415.586 C 291.256 398.058,255.312 393.766,219.938 402.887 C 206.960 406.233,195.209 411.028,167.000 424.487 C 147.341 433.866,131.493 440.274,124.952 441.488 C 122.238 441.992,120.838 441.689,119.002 440.203 C 116.741 438.372,116.693 438.119,118.172 435.879 C 119.037 434.571,125.401 430.378,132.315 426.562 C 156.577 413.171,174.621 397.893,185.519 381.515 C 195.292 366.826,198.968 356.563,198.988 343.910 C 198.998 337.443,198.551 335.420,195.964 330.243 C 191.029 320.368,184.827 315.758,168.048 309.494 C 162.500 307.423,158.925 305.441,157.645 303.727 C 155.803 301.259,155.787 300.974,157.365 298.565 C 161.038 292.960,173.903 288.746,186.496 289.024 C 190.898 289.121,195.063 289.155,195.750 289.100 C 196.510 289.039,197.000 287.530,197.000 285.250 C 197.000 280.296,188.762 267.289,182.966 263.091 C 175.196 257.462,168.936 255.775,153.809 255.236 C 137.861 254.667,137.565 254.453,141.527 246.355 C 147.762 233.612,163.816 226.030,184.610 226.008 L 191.720 226.000 192.312 207.250 C 193.389 173.160,199.625 153.211,214.119 137.487 C 216.832 134.544,218.014 132.478,217.601 131.401 C 216.924 129.640,217.170 129.609,205.500 132.907 C 197.012 135.305,181.535 135.614,172.000 133.575 C 168.425 132.811,160.775 130.543,155.000 128.536 C 149.225 126.529,141.557 124.629,137.960 124.316 C 129.451 123.573,124.958 125.779,118.359 133.936 C 112.398 141.304,109.593 142.391,106.329 138.596 C 105.048 137.107,104.000 134.999,104.000 133.911 C 104.000 128.826,116.879 108.370,125.557 99.670 C 143.646 81.535,160.607 77.431,184.450 85.418 " stroke="none" fill="#2b2b2b" fill-rule="evenodd"/></svg>